FILE "hello_cdda.bin" BINARY
  TRACK 01 MODE2/2352
    INDEX 01 00:00:00
  TRACK 02 AUDIO
    INDEX 00 00:14:21
    INDEX 01 00:16:21
  TRACK 03 AUDIO
    INDEX 00 00:36:21
    INDEX 01 00:38:21
